M48
; DRILL file {KiCad 6.0.3-a3aad9c10e~116~ubuntu20.04.1} date Mon 21 Mar 2022 01:27:28 AM EDT
; FORMAT={-:-/ absolute / inch / decimal}
; #@! TF.CreationDate,2022-03-21T01:27:28-04:00
; #@! TF.GenerationSoftware,Kicad,Pcbnew,6.0.3-a3aad9c10e~116~ubuntu20.04.1
; #@! TF.FileFunction,MixedPlating,1,2
FMAT,2
INCH
; #@! TA.AperFunction,Plated,PTH,ViaDrill
T1C0.0100
; #@! TA.AperFunction,Plated,PTH,ComponentDrill
T2C0.0200
; #@! TA.AperFunction,Plated,PTH,ComponentDrill
T3C0.0250
; #@! TA.AperFunction,Plated,PTH,ComponentDrill
T4C0.1260
%
G90
G05
T1
X5.025Y-3.4
X5.025Y-3.6
X5.05Y-3.375
X5.05Y-3.625
X5.075Y-3.4
X5.075Y-3.6
X5.1Y-3.375
X5.1Y-3.625
X5.125Y-3.4
X5.125Y-3.6
X5.15Y-3.375
X5.15Y-3.625
X6.1Y-3.375
X6.1Y-3.625
X6.125Y-3.4
X6.125Y-3.6
X6.15Y-3.375
X6.15Y-3.625
X6.175Y-3.4
X6.175Y-3.6
X6.2Y-3.375
X6.2Y-3.625
X6.225Y-3.4
X6.225Y-3.6
T2
X5.625Y-3.5
T3
X5.4375Y-3.5
X5.8125Y-3.5
T4
X5.125Y-3.125
X5.125Y-3.875
X6.125Y-3.125
X6.125Y-3.875
T0
M30
