%TF.GenerationSoftware,KiCad,Pcbnew,6.0.3-a3aad9c10e~116~ubuntu20.04.1*%
%TF.CreationDate,2022-03-21T01:27:17-04:00*%
%TF.ProjectId,pcf_0.5in,7063665f-302e-4356-996e-2e6b69636164,-*%
%TF.SameCoordinates,Original*%
%TF.FileFunction,Legend,Top*%
%TF.FilePolarity,Positive*%
%FSLAX46Y46*%
G04 Gerber Fmt 4.6, Leading zero omitted, Abs format (unit mm)*
G04 Created by KiCad (PCBNEW 6.0.3-a3aad9c10e~116~ubuntu20.04.1) date 2022-03-21 01:27:17*
%MOMM*%
%LPD*%
G01*
G04 APERTURE LIST*
%ADD10C,0.127000*%
%ADD11C,0.152400*%
%ADD12C,0.177800*%
%ADD13C,0.150000*%
G04 APERTURE END LIST*
D10*
X136525000Y-83820000D02*
X149860000Y-83820000D01*
X149860000Y-83820000D02*
X149860000Y-81280000D01*
X149860000Y-81280000D02*
X136525000Y-81280000D01*
X136525000Y-81280000D02*
X136525000Y-83820000D01*
G36*
X136525000Y-83820000D02*
G01*
X149860000Y-83820000D01*
X149860000Y-81280000D01*
X136525000Y-81280000D01*
X136525000Y-83820000D01*
G37*
X136525000Y-96520000D02*
X149860000Y-96520000D01*
X149860000Y-96520000D02*
X149860000Y-93980000D01*
X149860000Y-93980000D02*
X136525000Y-93980000D01*
X136525000Y-93980000D02*
X136525000Y-96520000D01*
G36*
X136525000Y-96520000D02*
G01*
X149860000Y-96520000D01*
X149860000Y-93980000D01*
X136525000Y-93980000D01*
X136525000Y-96520000D01*
G37*
X136525000Y-86995000D02*
X149860000Y-86995000D01*
X149860000Y-86995000D02*
X149860000Y-84455000D01*
X149860000Y-84455000D02*
X136525000Y-84455000D01*
X136525000Y-84455000D02*
X136525000Y-86995000D01*
G36*
X136525000Y-86995000D02*
G01*
X149860000Y-86995000D01*
X149860000Y-84455000D01*
X136525000Y-84455000D01*
X136525000Y-86995000D01*
G37*
X136525000Y-93345000D02*
X149860000Y-93345000D01*
X149860000Y-93345000D02*
X149860000Y-90805000D01*
X149860000Y-90805000D02*
X136525000Y-90805000D01*
X136525000Y-90805000D02*
X136525000Y-93345000D01*
G36*
X136525000Y-93345000D02*
G01*
X149860000Y-93345000D01*
X149860000Y-90805000D01*
X136525000Y-90805000D01*
X136525000Y-93345000D01*
G37*
X136525000Y-99695000D02*
X149860000Y-99695000D01*
X149860000Y-99695000D02*
X149860000Y-97155000D01*
X149860000Y-97155000D02*
X136525000Y-97155000D01*
X136525000Y-97155000D02*
X136525000Y-99695000D01*
G36*
X136525000Y-99695000D02*
G01*
X149860000Y-99695000D01*
X149860000Y-97155000D01*
X136525000Y-97155000D01*
X136525000Y-99695000D01*
G37*
D11*
X135264797Y-95594714D02*
X135264797Y-94832714D01*
X135990511Y-95594714D02*
X135627654Y-95594714D01*
X135627654Y-94832714D01*
X136244511Y-95522142D02*
X136280797Y-95558428D01*
X136244511Y-95594714D01*
X136208225Y-95558428D01*
X136244511Y-95522142D01*
X136244511Y-95594714D01*
X136244511Y-95123000D02*
X136280797Y-95159285D01*
X136244511Y-95195571D01*
X136208225Y-95159285D01*
X136244511Y-95123000D01*
X136244511Y-95195571D01*
X133377940Y-98769714D02*
X133377940Y-98007714D01*
X133813368Y-98769714D01*
X133813368Y-98007714D01*
X134321368Y-98007714D02*
X134466511Y-98007714D01*
X134539082Y-98044000D01*
X134611654Y-98116571D01*
X134647940Y-98261714D01*
X134647940Y-98515714D01*
X134611654Y-98660857D01*
X134539082Y-98733428D01*
X134466511Y-98769714D01*
X134321368Y-98769714D01*
X134248797Y-98733428D01*
X134176225Y-98660857D01*
X134139940Y-98515714D01*
X134139940Y-98261714D01*
X134176225Y-98116571D01*
X134248797Y-98044000D01*
X134321368Y-98007714D01*
X134865654Y-98007714D02*
X135301082Y-98007714D01*
X135083368Y-98769714D02*
X135083368Y-98007714D01*
X135555082Y-98370571D02*
X135809082Y-98370571D01*
X135917940Y-98769714D02*
X135555082Y-98769714D01*
X135555082Y-98007714D01*
X135917940Y-98007714D01*
X136244511Y-98697142D02*
X136280797Y-98733428D01*
X136244511Y-98769714D01*
X136208225Y-98733428D01*
X136244511Y-98697142D01*
X136244511Y-98769714D01*
X136244511Y-98298000D02*
X136280797Y-98334285D01*
X136244511Y-98370571D01*
X136208225Y-98334285D01*
X136244511Y-98298000D01*
X136244511Y-98370571D01*
X150023285Y-88482714D02*
X149878142Y-88482714D01*
X149805571Y-88519000D01*
X149769285Y-88555285D01*
X149696714Y-88664142D01*
X149660428Y-88809285D01*
X149660428Y-89099571D01*
X149696714Y-89172142D01*
X149733000Y-89208428D01*
X149805571Y-89244714D01*
X149950714Y-89244714D01*
X150023285Y-89208428D01*
X150059571Y-89172142D01*
X150095857Y-89099571D01*
X150095857Y-88918142D01*
X150059571Y-88845571D01*
X150023285Y-88809285D01*
X149950714Y-88773000D01*
X149805571Y-88773000D01*
X149733000Y-88809285D01*
X149696714Y-88845571D01*
X149660428Y-88918142D01*
X150567571Y-88482714D02*
X150640142Y-88482714D01*
X150712714Y-88519000D01*
X150749000Y-88555285D01*
X150785285Y-88627857D01*
X150821571Y-88773000D01*
X150821571Y-88954428D01*
X150785285Y-89099571D01*
X150749000Y-89172142D01*
X150712714Y-89208428D01*
X150640142Y-89244714D01*
X150567571Y-89244714D01*
X150495000Y-89208428D01*
X150458714Y-89172142D01*
X150422428Y-89099571D01*
X150386142Y-88954428D01*
X150386142Y-88773000D01*
X150422428Y-88627857D01*
X150458714Y-88555285D01*
X150495000Y-88519000D01*
X150567571Y-88482714D01*
X151148142Y-89244714D02*
X151148142Y-88736714D01*
X151148142Y-88809285D02*
X151184428Y-88773000D01*
X151257000Y-88736714D01*
X151365857Y-88736714D01*
X151438428Y-88773000D01*
X151474714Y-88845571D01*
X151474714Y-89244714D01*
X151474714Y-88845571D02*
X151511000Y-88773000D01*
X151583571Y-88736714D01*
X151692428Y-88736714D01*
X151765000Y-88773000D01*
X151801285Y-88845571D01*
X151801285Y-89244714D01*
X152164142Y-89244714D02*
X152164142Y-88736714D01*
X152164142Y-88482714D02*
X152127857Y-88519000D01*
X152164142Y-88555285D01*
X152200428Y-88519000D01*
X152164142Y-88482714D01*
X152164142Y-88555285D01*
X152635857Y-89244714D02*
X152563285Y-89208428D01*
X152527000Y-89135857D01*
X152527000Y-88482714D01*
X134865654Y-92020571D02*
X134974511Y-92056857D01*
X135010797Y-92093142D01*
X135047082Y-92165714D01*
X135047082Y-92274571D01*
X135010797Y-92347142D01*
X134974511Y-92383428D01*
X134901940Y-92419714D01*
X134611654Y-92419714D01*
X134611654Y-91657714D01*
X134865654Y-91657714D01*
X134938225Y-91694000D01*
X134974511Y-91730285D01*
X135010797Y-91802857D01*
X135010797Y-91875428D01*
X134974511Y-91948000D01*
X134938225Y-91984285D01*
X134865654Y-92020571D01*
X134611654Y-92020571D01*
X135301082Y-91657714D02*
X135482511Y-92419714D01*
X135627654Y-91875428D01*
X135772797Y-92419714D01*
X135954225Y-91657714D01*
X136244511Y-92347142D02*
X136280797Y-92383428D01*
X136244511Y-92419714D01*
X136208225Y-92383428D01*
X136244511Y-92347142D01*
X136244511Y-92419714D01*
X136244511Y-91948000D02*
X136280797Y-91984285D01*
X136244511Y-92020571D01*
X136208225Y-91984285D01*
X136244511Y-91948000D01*
X136244511Y-92020571D01*
D12*
X135545285Y-77563859D02*
X134964714Y-77563859D01*
X135255000Y-77563859D02*
X135255000Y-76547859D01*
X135158238Y-76693001D01*
X135061476Y-76789763D01*
X134964714Y-76838144D01*
X136706428Y-76499478D02*
X135835571Y-77805763D01*
X136996714Y-76644620D02*
X137045095Y-76596240D01*
X137141857Y-76547859D01*
X137383761Y-76547859D01*
X137480523Y-76596240D01*
X137528904Y-76644620D01*
X137577285Y-76741382D01*
X137577285Y-76838144D01*
X137528904Y-76983287D01*
X136948333Y-77563859D01*
X137577285Y-77563859D01*
X137964333Y-76547859D02*
X137964333Y-76741382D01*
X138351380Y-76547859D02*
X138351380Y-76741382D01*
X139560904Y-77563859D02*
X139560904Y-76547859D01*
X139947952Y-76547859D01*
X140044714Y-76596240D01*
X140093095Y-76644620D01*
X140141476Y-76741382D01*
X140141476Y-76886525D01*
X140093095Y-76983287D01*
X140044714Y-77031668D01*
X139947952Y-77080049D01*
X139560904Y-77080049D01*
X140576904Y-77563859D02*
X140576904Y-76886525D01*
X140576904Y-76547859D02*
X140528523Y-76596240D01*
X140576904Y-76644620D01*
X140625285Y-76596240D01*
X140576904Y-76547859D01*
X140576904Y-76644620D01*
X141060714Y-76886525D02*
X141060714Y-77902525D01*
X141060714Y-76934906D02*
X141157476Y-76886525D01*
X141351000Y-76886525D01*
X141447761Y-76934906D01*
X141496142Y-76983287D01*
X141544523Y-77080049D01*
X141544523Y-77370335D01*
X141496142Y-77467097D01*
X141447761Y-77515478D01*
X141351000Y-77563859D01*
X141157476Y-77563859D01*
X141060714Y-77515478D01*
X142367000Y-77515478D02*
X142270238Y-77563859D01*
X142076714Y-77563859D01*
X141979952Y-77515478D01*
X141931571Y-77418716D01*
X141931571Y-77031668D01*
X141979952Y-76934906D01*
X142076714Y-76886525D01*
X142270238Y-76886525D01*
X142367000Y-76934906D01*
X142415380Y-77031668D01*
X142415380Y-77128430D01*
X141931571Y-77225192D01*
X144205476Y-77467097D02*
X144157095Y-77515478D01*
X144011952Y-77563859D01*
X143915190Y-77563859D01*
X143770047Y-77515478D01*
X143673285Y-77418716D01*
X143624904Y-77321954D01*
X143576523Y-77128430D01*
X143576523Y-76983287D01*
X143624904Y-76789763D01*
X143673285Y-76693001D01*
X143770047Y-76596240D01*
X143915190Y-76547859D01*
X144011952Y-76547859D01*
X144157095Y-76596240D01*
X144205476Y-76644620D01*
X145076333Y-77563859D02*
X145076333Y-77031668D01*
X145027952Y-76934906D01*
X144931190Y-76886525D01*
X144737666Y-76886525D01*
X144640904Y-76934906D01*
X145076333Y-77515478D02*
X144979571Y-77563859D01*
X144737666Y-77563859D01*
X144640904Y-77515478D01*
X144592523Y-77418716D01*
X144592523Y-77321954D01*
X144640904Y-77225192D01*
X144737666Y-77176811D01*
X144979571Y-77176811D01*
X145076333Y-77128430D01*
X145560142Y-76886525D02*
X145560142Y-77902525D01*
X145560142Y-76934906D02*
X145656904Y-76886525D01*
X145850428Y-76886525D01*
X145947190Y-76934906D01*
X145995571Y-76983287D01*
X146043952Y-77080049D01*
X146043952Y-77370335D01*
X145995571Y-77467097D01*
X145947190Y-77515478D01*
X145850428Y-77563859D01*
X145656904Y-77563859D01*
X145560142Y-77515478D01*
X147592142Y-77031668D02*
X147253476Y-77031668D01*
X147253476Y-77563859D02*
X147253476Y-76547859D01*
X147737285Y-76547859D01*
X148124333Y-77563859D02*
X148124333Y-76886525D01*
X148124333Y-76547859D02*
X148075952Y-76596240D01*
X148124333Y-76644620D01*
X148172714Y-76596240D01*
X148124333Y-76547859D01*
X148124333Y-76644620D01*
X148753285Y-77563859D02*
X148656523Y-77515478D01*
X148608142Y-77418716D01*
X148608142Y-76547859D01*
X148995190Y-76886525D02*
X149382238Y-76886525D01*
X149140333Y-76547859D02*
X149140333Y-77418716D01*
X149188714Y-77515478D01*
X149285476Y-77563859D01*
X149382238Y-77563859D01*
X150107952Y-77515478D02*
X150011190Y-77563859D01*
X149817666Y-77563859D01*
X149720904Y-77515478D01*
X149672523Y-77418716D01*
X149672523Y-77031668D01*
X149720904Y-76934906D01*
X149817666Y-76886525D01*
X150011190Y-76886525D01*
X150107952Y-76934906D01*
X150156333Y-77031668D01*
X150156333Y-77128430D01*
X149672523Y-77225192D01*
X150591761Y-77563859D02*
X150591761Y-76886525D01*
X150591761Y-77080049D02*
X150640142Y-76983287D01*
X150688523Y-76934906D01*
X150785285Y-76886525D01*
X150882047Y-76886525D01*
X134553476Y-78183619D02*
X134892142Y-79199619D01*
X135230809Y-78183619D01*
X135956523Y-79151238D02*
X135859761Y-79199619D01*
X135666238Y-79199619D01*
X135569476Y-79151238D01*
X135521095Y-79054476D01*
X135521095Y-78667428D01*
X135569476Y-78570666D01*
X135666238Y-78522285D01*
X135859761Y-78522285D01*
X135956523Y-78570666D01*
X136004904Y-78667428D01*
X136004904Y-78764190D01*
X135521095Y-78860952D01*
X136440333Y-79199619D02*
X136440333Y-78522285D01*
X136440333Y-78715809D02*
X136488714Y-78619047D01*
X136537095Y-78570666D01*
X136633857Y-78522285D01*
X136730619Y-78522285D01*
X137020904Y-79151238D02*
X137117666Y-79199619D01*
X137311190Y-79199619D01*
X137407952Y-79151238D01*
X137456333Y-79054476D01*
X137456333Y-79006095D01*
X137407952Y-78909333D01*
X137311190Y-78860952D01*
X137166047Y-78860952D01*
X137069285Y-78812571D01*
X137020904Y-78715809D01*
X137020904Y-78667428D01*
X137069285Y-78570666D01*
X137166047Y-78522285D01*
X137311190Y-78522285D01*
X137407952Y-78570666D01*
X137891761Y-79199619D02*
X137891761Y-78522285D01*
X137891761Y-78183619D02*
X137843380Y-78232000D01*
X137891761Y-78280380D01*
X137940142Y-78232000D01*
X137891761Y-78183619D01*
X137891761Y-78280380D01*
X138520714Y-79199619D02*
X138423952Y-79151238D01*
X138375571Y-79102857D01*
X138327190Y-79006095D01*
X138327190Y-78715809D01*
X138375571Y-78619047D01*
X138423952Y-78570666D01*
X138520714Y-78522285D01*
X138665857Y-78522285D01*
X138762619Y-78570666D01*
X138811000Y-78619047D01*
X138859380Y-78715809D01*
X138859380Y-79006095D01*
X138811000Y-79102857D01*
X138762619Y-79151238D01*
X138665857Y-79199619D01*
X138520714Y-79199619D01*
X139294809Y-78522285D02*
X139294809Y-79199619D01*
X139294809Y-78619047D02*
X139343190Y-78570666D01*
X139439952Y-78522285D01*
X139585095Y-78522285D01*
X139681857Y-78570666D01*
X139730238Y-78667428D01*
X139730238Y-79199619D01*
X141520333Y-79199619D02*
X140939761Y-79199619D01*
X141230047Y-79199619D02*
X141230047Y-78183619D01*
X141133285Y-78328761D01*
X141036523Y-78425523D01*
X140939761Y-78473904D01*
X142004142Y-79151238D02*
X142004142Y-79199619D01*
X141955761Y-79296380D01*
X141907380Y-79344761D01*
X143794238Y-79199619D02*
X143455571Y-78715809D01*
X143213666Y-79199619D02*
X143213666Y-78183619D01*
X143600714Y-78183619D01*
X143697476Y-78232000D01*
X143745857Y-78280380D01*
X143794238Y-78377142D01*
X143794238Y-78522285D01*
X143745857Y-78619047D01*
X143697476Y-78667428D01*
X143600714Y-78715809D01*
X143213666Y-78715809D01*
X144616714Y-79151238D02*
X144519952Y-79199619D01*
X144326428Y-79199619D01*
X144229666Y-79151238D01*
X144181285Y-79054476D01*
X144181285Y-78667428D01*
X144229666Y-78570666D01*
X144326428Y-78522285D01*
X144519952Y-78522285D01*
X144616714Y-78570666D01*
X144665095Y-78667428D01*
X144665095Y-78764190D01*
X144181285Y-78860952D01*
X145003761Y-78522285D02*
X145245666Y-79199619D01*
X145487571Y-78522285D01*
X145874619Y-79199619D02*
X145874619Y-78522285D01*
X145874619Y-78183619D02*
X145826238Y-78232000D01*
X145874619Y-78280380D01*
X145923000Y-78232000D01*
X145874619Y-78183619D01*
X145874619Y-78280380D01*
X146310047Y-79151238D02*
X146406809Y-79199619D01*
X146600333Y-79199619D01*
X146697095Y-79151238D01*
X146745476Y-79054476D01*
X146745476Y-79006095D01*
X146697095Y-78909333D01*
X146600333Y-78860952D01*
X146455190Y-78860952D01*
X146358428Y-78812571D01*
X146310047Y-78715809D01*
X146310047Y-78667428D01*
X146358428Y-78570666D01*
X146455190Y-78522285D01*
X146600333Y-78522285D01*
X146697095Y-78570666D01*
X147180904Y-79199619D02*
X147180904Y-78522285D01*
X147180904Y-78183619D02*
X147132523Y-78232000D01*
X147180904Y-78280380D01*
X147229285Y-78232000D01*
X147180904Y-78183619D01*
X147180904Y-78280380D01*
X147809857Y-79199619D02*
X147713095Y-79151238D01*
X147664714Y-79102857D01*
X147616333Y-79006095D01*
X147616333Y-78715809D01*
X147664714Y-78619047D01*
X147713095Y-78570666D01*
X147809857Y-78522285D01*
X147955000Y-78522285D01*
X148051761Y-78570666D01*
X148100142Y-78619047D01*
X148148523Y-78715809D01*
X148148523Y-79006095D01*
X148100142Y-79102857D01*
X148051761Y-79151238D01*
X147955000Y-79199619D01*
X147809857Y-79199619D01*
X148583952Y-78522285D02*
X148583952Y-79199619D01*
X148583952Y-78619047D02*
X148632333Y-78570666D01*
X148729095Y-78522285D01*
X148874238Y-78522285D01*
X148971000Y-78570666D01*
X149019380Y-78667428D01*
X149019380Y-79199619D01*
X150277285Y-78812571D02*
X151051380Y-78812571D01*
X135787190Y-80835379D02*
X135787190Y-79819379D01*
X136367761Y-80835379D02*
X135932333Y-80254807D01*
X136367761Y-79819379D02*
X135787190Y-80399950D01*
X137093476Y-79819379D02*
X137093476Y-80545093D01*
X137045095Y-80690236D01*
X136948333Y-80786998D01*
X136803190Y-80835379D01*
X136706428Y-80835379D01*
X138012714Y-80158045D02*
X138012714Y-80835379D01*
X137770809Y-79770998D02*
X137528904Y-80496712D01*
X138157857Y-80496712D01*
X139222238Y-80932140D02*
X139125476Y-80883760D01*
X139028714Y-80786998D01*
X138883571Y-80641855D01*
X138786809Y-80593474D01*
X138690047Y-80593474D01*
X138738428Y-80835379D02*
X138641666Y-80786998D01*
X138544904Y-80690236D01*
X138496523Y-80496712D01*
X138496523Y-80158045D01*
X138544904Y-79964521D01*
X138641666Y-79867760D01*
X138738428Y-79819379D01*
X138931952Y-79819379D01*
X139028714Y-79867760D01*
X139125476Y-79964521D01*
X139173857Y-80158045D01*
X139173857Y-80496712D01*
X139125476Y-80690236D01*
X139028714Y-80786998D01*
X138931952Y-80835379D01*
X138738428Y-80835379D01*
X140093095Y-80835379D02*
X139609285Y-80835379D01*
X139609285Y-79819379D01*
X140431761Y-80835379D02*
X140431761Y-79819379D01*
X140818809Y-79819379D01*
X140915571Y-79867760D01*
X140963952Y-79916140D01*
X141012333Y-80012902D01*
X141012333Y-80158045D01*
X140963952Y-80254807D01*
X140915571Y-80303188D01*
X140818809Y-80351569D01*
X140431761Y-80351569D01*
X141496142Y-80786998D02*
X141496142Y-80835379D01*
X141447761Y-80932140D01*
X141399380Y-80980521D01*
X142657285Y-79916140D02*
X142705666Y-79867760D01*
X142802428Y-79819379D01*
X143044333Y-79819379D01*
X143141095Y-79867760D01*
X143189476Y-79916140D01*
X143237857Y-80012902D01*
X143237857Y-80109664D01*
X143189476Y-80254807D01*
X142608904Y-80835379D01*
X143237857Y-80835379D01*
X143866809Y-79819379D02*
X143963571Y-79819379D01*
X144060333Y-79867760D01*
X144108714Y-79916140D01*
X144157095Y-80012902D01*
X144205476Y-80206426D01*
X144205476Y-80448331D01*
X144157095Y-80641855D01*
X144108714Y-80738617D01*
X144060333Y-80786998D01*
X143963571Y-80835379D01*
X143866809Y-80835379D01*
X143770047Y-80786998D01*
X143721666Y-80738617D01*
X143673285Y-80641855D01*
X143624904Y-80448331D01*
X143624904Y-80206426D01*
X143673285Y-80012902D01*
X143721666Y-79916140D01*
X143770047Y-79867760D01*
X143866809Y-79819379D01*
X144592523Y-79916140D02*
X144640904Y-79867760D01*
X144737666Y-79819379D01*
X144979571Y-79819379D01*
X145076333Y-79867760D01*
X145124714Y-79916140D01*
X145173095Y-80012902D01*
X145173095Y-80109664D01*
X145124714Y-80254807D01*
X144544142Y-80835379D01*
X145173095Y-80835379D01*
X145560142Y-79916140D02*
X145608523Y-79867760D01*
X145705285Y-79819379D01*
X145947190Y-79819379D01*
X146043952Y-79867760D01*
X146092333Y-79916140D01*
X146140714Y-80012902D01*
X146140714Y-80109664D01*
X146092333Y-80254807D01*
X145511761Y-80835379D01*
X146140714Y-80835379D01*
X146769666Y-79819379D02*
X146866428Y-79819379D01*
X146963190Y-79867760D01*
X147011571Y-79916140D01*
X147059952Y-80012902D01*
X147108333Y-80206426D01*
X147108333Y-80448331D01*
X147059952Y-80641855D01*
X147011571Y-80738617D01*
X146963190Y-80786998D01*
X146866428Y-80835379D01*
X146769666Y-80835379D01*
X146672904Y-80786998D01*
X146624523Y-80738617D01*
X146576142Y-80641855D01*
X146527761Y-80448331D01*
X146527761Y-80206426D01*
X146576142Y-80012902D01*
X146624523Y-79916140D01*
X146672904Y-79867760D01*
X146769666Y-79819379D01*
X147447000Y-79819379D02*
X148075952Y-79819379D01*
X147737285Y-80206426D01*
X147882428Y-80206426D01*
X147979190Y-80254807D01*
X148027571Y-80303188D01*
X148075952Y-80399950D01*
X148075952Y-80641855D01*
X148027571Y-80738617D01*
X147979190Y-80786998D01*
X147882428Y-80835379D01*
X147592142Y-80835379D01*
X147495380Y-80786998D01*
X147447000Y-80738617D01*
X148463000Y-79916140D02*
X148511380Y-79867760D01*
X148608142Y-79819379D01*
X148850047Y-79819379D01*
X148946809Y-79867760D01*
X148995190Y-79916140D01*
X149043571Y-80012902D01*
X149043571Y-80109664D01*
X148995190Y-80254807D01*
X148414619Y-80835379D01*
X149043571Y-80835379D01*
X149672523Y-79819379D02*
X149769285Y-79819379D01*
X149866047Y-79867760D01*
X149914428Y-79916140D01*
X149962809Y-80012902D01*
X150011190Y-80206426D01*
X150011190Y-80448331D01*
X149962809Y-80641855D01*
X149914428Y-80738617D01*
X149866047Y-80786998D01*
X149769285Y-80835379D01*
X149672523Y-80835379D01*
X149575761Y-80786998D01*
X149527380Y-80738617D01*
X149479000Y-80641855D01*
X149430619Y-80448331D01*
X149430619Y-80206426D01*
X149479000Y-80012902D01*
X149527380Y-79916140D01*
X149575761Y-79867760D01*
X149672523Y-79819379D01*
D11*
X132116285Y-76671714D02*
X132660571Y-76671714D01*
X132334000Y-76345142D02*
X132116285Y-77324857D01*
X132588000Y-76998285D02*
X132043714Y-76998285D01*
X132370285Y-77324857D02*
X132588000Y-76345142D01*
X133241142Y-76671714D02*
X133241142Y-77179714D01*
X133059714Y-76381428D02*
X132878285Y-76925714D01*
X133350000Y-76925714D01*
X132116285Y-100801714D02*
X132660571Y-100801714D01*
X132334000Y-100475142D02*
X132116285Y-101454857D01*
X132588000Y-101128285D02*
X132043714Y-101128285D01*
X132370285Y-101454857D02*
X132588000Y-100475142D01*
X133241142Y-100801714D02*
X133241142Y-101309714D01*
X133059714Y-100511428D02*
X132878285Y-101055714D01*
X133350000Y-101055714D01*
X152436285Y-100801714D02*
X152980571Y-100801714D01*
X152654000Y-100475142D02*
X152436285Y-101454857D01*
X152908000Y-101128285D02*
X152363714Y-101128285D01*
X152690285Y-101454857D02*
X152908000Y-100475142D01*
X153561142Y-100801714D02*
X153561142Y-101309714D01*
X153379714Y-100511428D02*
X153198285Y-101055714D01*
X153670000Y-101055714D01*
X132761082Y-82245018D02*
X132869940Y-82281304D01*
X133051368Y-82281304D01*
X133123940Y-82245018D01*
X133160225Y-82208732D01*
X133196511Y-82136161D01*
X133196511Y-82063590D01*
X133160225Y-81991018D01*
X133123940Y-81954732D01*
X133051368Y-81918447D01*
X132906225Y-81882161D01*
X132833654Y-81845875D01*
X132797368Y-81809590D01*
X132761082Y-81737018D01*
X132761082Y-81664447D01*
X132797368Y-81591875D01*
X132833654Y-81555590D01*
X132906225Y-81519304D01*
X133087654Y-81519304D01*
X133196511Y-81555590D01*
X133958511Y-82208732D02*
X133922225Y-82245018D01*
X133813368Y-82281304D01*
X133740797Y-82281304D01*
X133631940Y-82245018D01*
X133559368Y-82172447D01*
X133523082Y-82099875D01*
X133486797Y-81954732D01*
X133486797Y-81845875D01*
X133523082Y-81700732D01*
X133559368Y-81628161D01*
X133631940Y-81555590D01*
X133740797Y-81519304D01*
X133813368Y-81519304D01*
X133922225Y-81555590D01*
X133958511Y-81591875D01*
X134720511Y-82281304D02*
X134466511Y-81918447D01*
X134285082Y-82281304D02*
X134285082Y-81519304D01*
X134575368Y-81519304D01*
X134647940Y-81555590D01*
X134684225Y-81591875D01*
X134720511Y-81664447D01*
X134720511Y-81773304D01*
X134684225Y-81845875D01*
X134647940Y-81882161D01*
X134575368Y-81918447D01*
X134285082Y-81918447D01*
X135047082Y-81882161D02*
X135301082Y-81882161D01*
X135409940Y-82281304D02*
X135047082Y-82281304D01*
X135047082Y-81519304D01*
X135409940Y-81519304D01*
X135663940Y-81519304D02*
X135845368Y-82281304D01*
X135990511Y-81737018D01*
X136135654Y-82281304D01*
X136317082Y-81519304D01*
X133015082Y-83508124D02*
X133015082Y-82746124D01*
X133196511Y-82746124D01*
X133305368Y-82782410D01*
X133377940Y-82854981D01*
X133414225Y-82927552D01*
X133450511Y-83072695D01*
X133450511Y-83181552D01*
X133414225Y-83326695D01*
X133377940Y-83399267D01*
X133305368Y-83471838D01*
X133196511Y-83508124D01*
X133015082Y-83508124D01*
X133777082Y-83108981D02*
X134031082Y-83108981D01*
X134139940Y-83508124D02*
X133777082Y-83508124D01*
X133777082Y-82746124D01*
X134139940Y-82746124D01*
X134466511Y-83508124D02*
X134466511Y-82746124D01*
X134756797Y-82746124D01*
X134829368Y-82782410D01*
X134865654Y-82818695D01*
X134901940Y-82891267D01*
X134901940Y-83000124D01*
X134865654Y-83072695D01*
X134829368Y-83108981D01*
X134756797Y-83145267D01*
X134466511Y-83145267D01*
X135119654Y-82746124D02*
X135555082Y-82746124D01*
X135337368Y-83508124D02*
X135337368Y-82746124D01*
X135809082Y-83508124D02*
X135809082Y-82746124D01*
X135809082Y-83108981D02*
X136244511Y-83108981D01*
X136244511Y-83508124D02*
X136244511Y-82746124D01*
X133513285Y-88482714D02*
X133368142Y-88482714D01*
X133295571Y-88519000D01*
X133259285Y-88555285D01*
X133186714Y-88664142D01*
X133150428Y-88809285D01*
X133150428Y-89099571D01*
X133186714Y-89172142D01*
X133223000Y-89208428D01*
X133295571Y-89244714D01*
X133440714Y-89244714D01*
X133513285Y-89208428D01*
X133549571Y-89172142D01*
X133585857Y-89099571D01*
X133585857Y-88918142D01*
X133549571Y-88845571D01*
X133513285Y-88809285D01*
X133440714Y-88773000D01*
X133295571Y-88773000D01*
X133223000Y-88809285D01*
X133186714Y-88845571D01*
X133150428Y-88918142D01*
X134057571Y-88482714D02*
X134130142Y-88482714D01*
X134202714Y-88519000D01*
X134239000Y-88555285D01*
X134275285Y-88627857D01*
X134311571Y-88773000D01*
X134311571Y-88954428D01*
X134275285Y-89099571D01*
X134239000Y-89172142D01*
X134202714Y-89208428D01*
X134130142Y-89244714D01*
X134057571Y-89244714D01*
X133985000Y-89208428D01*
X133948714Y-89172142D01*
X133912428Y-89099571D01*
X133876142Y-88954428D01*
X133876142Y-88773000D01*
X133912428Y-88627857D01*
X133948714Y-88555285D01*
X133985000Y-88519000D01*
X134057571Y-88482714D01*
X134638142Y-89244714D02*
X134638142Y-88736714D01*
X134638142Y-88809285D02*
X134674428Y-88773000D01*
X134747000Y-88736714D01*
X134855857Y-88736714D01*
X134928428Y-88773000D01*
X134964714Y-88845571D01*
X134964714Y-89244714D01*
X134964714Y-88845571D02*
X135001000Y-88773000D01*
X135073571Y-88736714D01*
X135182428Y-88736714D01*
X135255000Y-88773000D01*
X135291285Y-88845571D01*
X135291285Y-89244714D01*
X135654142Y-89244714D02*
X135654142Y-88736714D01*
X135654142Y-88482714D02*
X135617857Y-88519000D01*
X135654142Y-88555285D01*
X135690428Y-88519000D01*
X135654142Y-88482714D01*
X135654142Y-88555285D01*
X136125857Y-89244714D02*
X136053285Y-89208428D01*
X136017000Y-89135857D01*
X136017000Y-88482714D01*
X136216571Y-100910571D02*
X136325428Y-100946857D01*
X136361714Y-100983142D01*
X136398000Y-101055714D01*
X136398000Y-101164571D01*
X136361714Y-101237142D01*
X136325428Y-101273428D01*
X136252857Y-101309714D01*
X135962571Y-101309714D01*
X135962571Y-100547714D01*
X136216571Y-100547714D01*
X136289142Y-100584000D01*
X136325428Y-100620285D01*
X136361714Y-100692857D01*
X136361714Y-100765428D01*
X136325428Y-100838000D01*
X136289142Y-100874285D01*
X136216571Y-100910571D01*
X135962571Y-100910571D01*
X137051142Y-101309714D02*
X137051142Y-100910571D01*
X137014857Y-100838000D01*
X136942285Y-100801714D01*
X136797142Y-100801714D01*
X136724571Y-100838000D01*
X137051142Y-101273428D02*
X136978571Y-101309714D01*
X136797142Y-101309714D01*
X136724571Y-101273428D01*
X136688285Y-101200857D01*
X136688285Y-101128285D01*
X136724571Y-101055714D01*
X136797142Y-101019428D01*
X136978571Y-101019428D01*
X137051142Y-100983142D01*
X137377714Y-101273428D02*
X137450285Y-101309714D01*
X137595428Y-101309714D01*
X137668000Y-101273428D01*
X137704285Y-101200857D01*
X137704285Y-101164571D01*
X137668000Y-101092000D01*
X137595428Y-101055714D01*
X137486571Y-101055714D01*
X137414000Y-101019428D01*
X137377714Y-100946857D01*
X137377714Y-100910571D01*
X137414000Y-100838000D01*
X137486571Y-100801714D01*
X137595428Y-100801714D01*
X137668000Y-100838000D01*
X138321142Y-101273428D02*
X138248571Y-101309714D01*
X138103428Y-101309714D01*
X138030857Y-101273428D01*
X137994571Y-101200857D01*
X137994571Y-100910571D01*
X138030857Y-100838000D01*
X138103428Y-100801714D01*
X138248571Y-100801714D01*
X138321142Y-100838000D01*
X138357428Y-100910571D01*
X138357428Y-100983142D01*
X137994571Y-101055714D01*
X139010571Y-101309714D02*
X139010571Y-100547714D01*
X139010571Y-101273428D02*
X138938000Y-101309714D01*
X138792857Y-101309714D01*
X138720285Y-101273428D01*
X138684000Y-101237142D01*
X138647714Y-101164571D01*
X138647714Y-100946857D01*
X138684000Y-100874285D01*
X138720285Y-100838000D01*
X138792857Y-100801714D01*
X138938000Y-100801714D01*
X139010571Y-100838000D01*
X140062857Y-101309714D02*
X139990285Y-101273428D01*
X139954000Y-101237142D01*
X139917714Y-101164571D01*
X139917714Y-100946857D01*
X139954000Y-100874285D01*
X139990285Y-100838000D01*
X140062857Y-100801714D01*
X140171714Y-100801714D01*
X140244285Y-100838000D01*
X140280571Y-100874285D01*
X140316857Y-100946857D01*
X140316857Y-101164571D01*
X140280571Y-101237142D01*
X140244285Y-101273428D01*
X140171714Y-101309714D01*
X140062857Y-101309714D01*
X140643428Y-100801714D02*
X140643428Y-101309714D01*
X140643428Y-100874285D02*
X140679714Y-100838000D01*
X140752285Y-100801714D01*
X140861142Y-100801714D01*
X140933714Y-100838000D01*
X140970000Y-100910571D01*
X140970000Y-101309714D01*
X141840857Y-100547714D02*
X142022285Y-101309714D01*
X142167428Y-100765428D01*
X142312571Y-101309714D01*
X142494000Y-100547714D01*
X143183428Y-101309714D02*
X142748000Y-101309714D01*
X142965714Y-101309714D02*
X142965714Y-100547714D01*
X142893142Y-100656571D01*
X142820571Y-100729142D01*
X142748000Y-100765428D01*
X143909142Y-100584000D02*
X143836571Y-100547714D01*
X143727714Y-100547714D01*
X143618857Y-100584000D01*
X143546285Y-100656571D01*
X143510000Y-100729142D01*
X143473714Y-100874285D01*
X143473714Y-100983142D01*
X143510000Y-101128285D01*
X143546285Y-101200857D01*
X143618857Y-101273428D01*
X143727714Y-101309714D01*
X143800285Y-101309714D01*
X143909142Y-101273428D01*
X143945428Y-101237142D01*
X143945428Y-100983142D01*
X143800285Y-100983142D01*
X144272000Y-101309714D02*
X144272000Y-100547714D01*
X144272000Y-100910571D02*
X144707428Y-100910571D01*
X144707428Y-101309714D02*
X144707428Y-100547714D01*
X144997714Y-100547714D02*
X145505714Y-100547714D01*
X144997714Y-101309714D01*
X145505714Y-101309714D01*
X146376571Y-101309714D02*
X146376571Y-100547714D01*
X146558000Y-100547714D01*
X146666857Y-100584000D01*
X146739428Y-100656571D01*
X146775714Y-100729142D01*
X146812000Y-100874285D01*
X146812000Y-100983142D01*
X146775714Y-101128285D01*
X146739428Y-101200857D01*
X146666857Y-101273428D01*
X146558000Y-101309714D01*
X146376571Y-101309714D01*
X147428857Y-101273428D02*
X147356285Y-101309714D01*
X147211142Y-101309714D01*
X147138571Y-101273428D01*
X147102285Y-101200857D01*
X147102285Y-100910571D01*
X147138571Y-100838000D01*
X147211142Y-100801714D01*
X147356285Y-100801714D01*
X147428857Y-100838000D01*
X147465142Y-100910571D01*
X147465142Y-100983142D01*
X147102285Y-101055714D01*
X147755428Y-101273428D02*
X147828000Y-101309714D01*
X147973142Y-101309714D01*
X148045714Y-101273428D01*
X148082000Y-101200857D01*
X148082000Y-101164571D01*
X148045714Y-101092000D01*
X147973142Y-101055714D01*
X147864285Y-101055714D01*
X147791714Y-101019428D01*
X147755428Y-100946857D01*
X147755428Y-100910571D01*
X147791714Y-100838000D01*
X147864285Y-100801714D01*
X147973142Y-100801714D01*
X148045714Y-100838000D01*
X148408571Y-101309714D02*
X148408571Y-100801714D01*
X148408571Y-100547714D02*
X148372285Y-100584000D01*
X148408571Y-100620285D01*
X148444857Y-100584000D01*
X148408571Y-100547714D01*
X148408571Y-100620285D01*
X149098000Y-100801714D02*
X149098000Y-101418571D01*
X149061714Y-101491142D01*
X149025428Y-101527428D01*
X148952857Y-101563714D01*
X148844000Y-101563714D01*
X148771428Y-101527428D01*
X149098000Y-101273428D02*
X149025428Y-101309714D01*
X148880285Y-101309714D01*
X148807714Y-101273428D01*
X148771428Y-101237142D01*
X148735142Y-101164571D01*
X148735142Y-100946857D01*
X148771428Y-100874285D01*
X148807714Y-100838000D01*
X148880285Y-100801714D01*
X149025428Y-100801714D01*
X149098000Y-100838000D01*
X149460857Y-100801714D02*
X149460857Y-101309714D01*
X149460857Y-100874285D02*
X149497142Y-100838000D01*
X149569714Y-100801714D01*
X149678571Y-100801714D01*
X149751142Y-100838000D01*
X149787428Y-100910571D01*
X149787428Y-101309714D01*
X152436285Y-76671714D02*
X152980571Y-76671714D01*
X152654000Y-76345142D02*
X152436285Y-77324857D01*
X152908000Y-76998285D02*
X152363714Y-76998285D01*
X152690285Y-77324857D02*
X152908000Y-76345142D01*
X153561142Y-76671714D02*
X153561142Y-77179714D01*
X153379714Y-76381428D02*
X153198285Y-76925714D01*
X153670000Y-76925714D01*
X132833654Y-85456304D02*
X132833654Y-84694304D01*
X133123940Y-84694304D01*
X133196511Y-84730590D01*
X133232797Y-84766875D01*
X133269082Y-84839447D01*
X133269082Y-84948304D01*
X133232797Y-85020875D01*
X133196511Y-85057161D01*
X133123940Y-85093447D01*
X132833654Y-85093447D01*
X134031082Y-85456304D02*
X133777082Y-85093447D01*
X133595654Y-85456304D02*
X133595654Y-84694304D01*
X133885940Y-84694304D01*
X133958511Y-84730590D01*
X133994797Y-84766875D01*
X134031082Y-84839447D01*
X134031082Y-84948304D01*
X133994797Y-85020875D01*
X133958511Y-85057161D01*
X133885940Y-85093447D01*
X133595654Y-85093447D01*
X134502797Y-84694304D02*
X134647940Y-84694304D01*
X134720511Y-84730590D01*
X134793082Y-84803161D01*
X134829368Y-84948304D01*
X134829368Y-85202304D01*
X134793082Y-85347447D01*
X134720511Y-85420018D01*
X134647940Y-85456304D01*
X134502797Y-85456304D01*
X134430225Y-85420018D01*
X134357654Y-85347447D01*
X134321368Y-85202304D01*
X134321368Y-84948304D01*
X134357654Y-84803161D01*
X134430225Y-84730590D01*
X134502797Y-84694304D01*
X135409940Y-85057161D02*
X135518797Y-85093447D01*
X135555082Y-85129732D01*
X135591368Y-85202304D01*
X135591368Y-85311161D01*
X135555082Y-85383732D01*
X135518797Y-85420018D01*
X135446225Y-85456304D01*
X135155940Y-85456304D01*
X135155940Y-84694304D01*
X135409940Y-84694304D01*
X135482511Y-84730590D01*
X135518797Y-84766875D01*
X135555082Y-84839447D01*
X135555082Y-84912018D01*
X135518797Y-84984590D01*
X135482511Y-85020875D01*
X135409940Y-85057161D01*
X135155940Y-85057161D01*
X135917940Y-85057161D02*
X136171940Y-85057161D01*
X136280797Y-85456304D02*
X135917940Y-85456304D01*
X135917940Y-84694304D01*
X136280797Y-84694304D01*
X133015082Y-86683124D02*
X133015082Y-85921124D01*
X133196511Y-85921124D01*
X133305368Y-85957410D01*
X133377940Y-86029981D01*
X133414225Y-86102552D01*
X133450511Y-86247695D01*
X133450511Y-86356552D01*
X133414225Y-86501695D01*
X133377940Y-86574267D01*
X133305368Y-86646838D01*
X133196511Y-86683124D01*
X133015082Y-86683124D01*
X133777082Y-86283981D02*
X134031082Y-86283981D01*
X134139940Y-86683124D02*
X133777082Y-86683124D01*
X133777082Y-85921124D01*
X134139940Y-85921124D01*
X134466511Y-86683124D02*
X134466511Y-85921124D01*
X134756797Y-85921124D01*
X134829368Y-85957410D01*
X134865654Y-85993695D01*
X134901940Y-86066267D01*
X134901940Y-86175124D01*
X134865654Y-86247695D01*
X134829368Y-86283981D01*
X134756797Y-86320267D01*
X134466511Y-86320267D01*
X135119654Y-85921124D02*
X135555082Y-85921124D01*
X135337368Y-86683124D02*
X135337368Y-85921124D01*
X135809082Y-86683124D02*
X135809082Y-85921124D01*
X135809082Y-86283981D02*
X136244511Y-86283981D01*
X136244511Y-86683124D02*
X136244511Y-85921124D01*
D13*
%TO.C,H4*%
X154813095Y-103322380D02*
X154813095Y-102322380D01*
X154813095Y-102798571D02*
X155384523Y-102798571D01*
X155384523Y-103322380D02*
X155384523Y-102322380D01*
X156289285Y-102655714D02*
X156289285Y-103322380D01*
X156051190Y-102274761D02*
X155813095Y-102989047D01*
X156432142Y-102989047D01*
%TO.C,H1*%
X129413095Y-103068380D02*
X129413095Y-102068380D01*
X129413095Y-102544571D02*
X129984523Y-102544571D01*
X129984523Y-103068380D02*
X129984523Y-102068380D01*
X130984523Y-103068380D02*
X130413095Y-103068380D01*
X130698809Y-103068380D02*
X130698809Y-102068380D01*
X130603571Y-102211238D01*
X130508333Y-102306476D01*
X130413095Y-102354095D01*
%TO.C,H3*%
X129413095Y-76027380D02*
X129413095Y-75027380D01*
X129413095Y-75503571D02*
X129984523Y-75503571D01*
X129984523Y-76027380D02*
X129984523Y-75027380D01*
X130365476Y-75027380D02*
X130984523Y-75027380D01*
X130651190Y-75408333D01*
X130794047Y-75408333D01*
X130889285Y-75455952D01*
X130936904Y-75503571D01*
X130984523Y-75598809D01*
X130984523Y-75836904D01*
X130936904Y-75932142D01*
X130889285Y-75979761D01*
X130794047Y-76027380D01*
X130508333Y-76027380D01*
X130413095Y-75979761D01*
X130365476Y-75932142D01*
%TO.C,F1*%
X145081666Y-88828571D02*
X144748333Y-88828571D01*
X144748333Y-89352380D02*
X144748333Y-88352380D01*
X145224523Y-88352380D01*
X146129285Y-89352380D02*
X145557857Y-89352380D01*
X145843571Y-89352380D02*
X145843571Y-88352380D01*
X145748333Y-88495238D01*
X145653095Y-88590476D01*
X145557857Y-88638095D01*
%TO.C,J2*%
X157566854Y-84788653D02*
X158281826Y-84788653D01*
X158424821Y-84836318D01*
X158520150Y-84931648D01*
X158567815Y-85074642D01*
X158567815Y-85169972D01*
X157662184Y-84359670D02*
X157614519Y-84312005D01*
X157566854Y-84216675D01*
X157566854Y-83978351D01*
X157614519Y-83883022D01*
X157662184Y-83835357D01*
X157757513Y-83787692D01*
X157852843Y-83787692D01*
X157995837Y-83835357D01*
X158567815Y-84407335D01*
X158567815Y-83787692D01*
%TO.C,H2*%
X154813095Y-76027380D02*
X154813095Y-75027380D01*
X154813095Y-75503571D02*
X155384523Y-75503571D01*
X155384523Y-76027380D02*
X155384523Y-75027380D01*
X155813095Y-75122619D02*
X155860714Y-75075000D01*
X155955952Y-75027380D01*
X156194047Y-75027380D01*
X156289285Y-75075000D01*
X156336904Y-75122619D01*
X156384523Y-75217857D01*
X156384523Y-75313095D01*
X156336904Y-75455952D01*
X155765476Y-76027380D01*
X156384523Y-76027380D01*
%TO.C,J1*%
X127086854Y-84788653D02*
X127801826Y-84788653D01*
X127944821Y-84836318D01*
X128040150Y-84931648D01*
X128087815Y-85074642D01*
X128087815Y-85169972D01*
X128087815Y-83787692D02*
X128087815Y-84359670D01*
X128087815Y-84073681D02*
X127086854Y-84073681D01*
X127229849Y-84169011D01*
X127325178Y-84264340D01*
X127372843Y-84359670D01*
D10*
%TO.C,J2*%
X158750000Y-88100000D02*
X158750000Y-87000000D01*
X154950000Y-90800000D02*
X154950000Y-89700000D01*
X154950000Y-88100000D02*
X154950000Y-87000000D01*
X158750000Y-90800000D02*
X158750000Y-89700000D01*
%TO.C,J1*%
X130800000Y-87000000D02*
X130800000Y-88100000D01*
X130800000Y-89700000D02*
X130800000Y-90800000D01*
X127000000Y-89700000D02*
X127000000Y-90800000D01*
X127000000Y-87000000D02*
X127000000Y-88100000D01*
%TD*%
M02*
